<svg width="240" height="240" viewBox="0 0 240 240" fill="none" xmlns="http://www.w3.org/2000/svg">
<path fill-rule="evenodd" clip-rule="evenodd" d="M206 129.127L120.5 44L35 129.127L82.0784 176H158.922L206 129.127ZM171.252 106.906L160.895 96.5938H151.213L156.93 106.906H171.252ZM141.215 77L151.573 87.3125H146.066L140.348 77H141.215ZM124.554 67.7188L120.316 60.075L116.078 67.7188H124.554ZM99.7844 77H100.283L94.5655 87.3125H89.4267L99.7844 77ZM110.931 77H129.7L135.418 87.3125H105.214L110.931 77ZM89.4193 96.5938H80.1048L69.7471 106.906H83.7013L89.4193 96.5938ZM146.282 106.906L140.564 96.5938H100.067L94.3494 106.906H146.282ZM180.574 116.188H162.077L167.795 126.5H190.932L180.574 116.188ZM151.429 116.188L157.147 126.5H83.4853L89.2032 116.188H151.429ZM60.4252 116.188H78.5552L72.8372 126.5H50.0675L60.4252 116.188ZM73.7477 135.781H54.6368L64.9945 146.094H77.056L73.7477 135.781ZM82.7167 163.739L74.3164 155.375H80.0336L82.7167 163.739ZM93.4587 166.719L89.8195 155.375H150.812L147.173 166.719H93.4587ZM157.742 164.277L160.598 155.375H166.683L157.742 164.277ZM163.576 146.094H176.005L186.363 135.781H166.884L163.576 146.094ZM83.5336 135.781L86.8419 146.094H153.79L157.098 135.781H83.5336Z" fill="white"/>
</svg>
